<svg width="800" height="400" viewBox="0 0 800 400" xmlns="http://www.w3.org/2000/svg">
  <rect width="800" height="400" fill="#f3f4f6" />
  <g transform="translate(250, 100)" fill="#9ca3af">
    <!-- Car body -->
    <path d="M300 120 C300 80 280 40 220 40 L80 40 C20 40 0 80 0 120 L0 160 L300 160 L300 120" />
    <!-- Car top -->
    <path d="M220 40 C220 40 200 0 140 0 L120 0 C60 0 40 40 40 40" />
    <!-- Wheels -->
    <circle cx="60" cy="160" r="30" />
    <circle cx="240" cy="160" r="30" />
    <!-- Windows -->
    <path d="M140 0 L120 0 C80 0 60 20 40 40 L80 40 C100 20 120 20 140 0" fill="#d1d5db" />
    <!-- Headlight -->
    <rect x="10" y="80" width="20" height="20" rx="5" fill="#d1d5db" />
    <!-- Taillight -->
    <rect x="270" y="80" width="20" height="20" rx="5" fill="#d1d5db" />
  </g>
  <text x="400" y="320" font-family="system-ui, -apple-system, sans-serif" font-size="16" fill="#6b7280"
    text-anchor="middle">
    Car Image Placeholder
  </text>
</svg>